<mxfile host="app.diagrams.net" agent="Mozilla/5.0 (Windows NT 10.0; Win64; x64) AppleWebKit/537.36 (KHTML, like Gecko) Chrome/131.0.0.0 Safari/537.36" version="24.8.8">
  <diagram name="1 oldal" id="h9CedGA-FpU8a1a8djV_">
    <mxGraphModel dx="2668" dy="693" grid="1" gridSize="10" guides="1" tooltips="1" connect="1" arrows="1" fold="1" page="1" pageScale="1" pageWidth="827" pageHeight="1169" math="0" shadow="0">
      <root>
        <mxCell id="0" />
        <mxCell id="1" parent="0" />
        <mxCell id="hNtEoJGGmbfkUc4GWyFj-20" style="rounded=0;orthogonalLoop=1;jettySize=auto;html=1;exitX=0.5;exitY=1;exitDx=0;exitDy=0;entryX=0.5;entryY=0;entryDx=0;entryDy=0;endArrow=none;endFill=0;" parent="1" source="hNtEoJGGmbfkUc4GWyFj-1" target="hNtEoJGGmbfkUc4GWyFj-2" edge="1">
          <mxGeometry relative="1" as="geometry" />
        </mxCell>
        <mxCell id="hNtEoJGGmbfkUc4GWyFj-1" value="CNGDZ3" style="ellipse;whiteSpace=wrap;html=1;" parent="1" vertex="1">
          <mxGeometry y="10" width="120" height="80" as="geometry" />
        </mxCell>
        <mxCell id="hNtEoJGGmbfkUc4GWyFj-21" style="rounded=0;orthogonalLoop=1;jettySize=auto;html=1;exitX=0.5;exitY=1;exitDx=0;exitDy=0;entryX=0.5;entryY=0;entryDx=0;entryDy=0;endArrow=none;endFill=0;" parent="1" source="hNtEoJGGmbfkUc4GWyFj-2" target="hNtEoJGGmbfkUc4GWyFj-4" edge="1">
          <mxGeometry relative="1" as="geometry" />
        </mxCell>
        <mxCell id="hNtEoJGGmbfkUc4GWyFj-2" value="Vásárlás" style="ellipse;whiteSpace=wrap;html=1;" parent="1" vertex="1">
          <mxGeometry y="140" width="120" height="80" as="geometry" />
        </mxCell>
        <mxCell id="hNtEoJGGmbfkUc4GWyFj-29" style="rounded=0;orthogonalLoop=1;jettySize=auto;html=1;exitX=0.5;exitY=1;exitDx=0;exitDy=0;entryX=0.5;entryY=0;entryDx=0;entryDy=0;endArrow=none;endFill=0;" parent="1" source="hNtEoJGGmbfkUc4GWyFj-3" target="hNtEoJGGmbfkUc4GWyFj-7" edge="1">
          <mxGeometry relative="1" as="geometry" />
        </mxCell>
        <mxCell id="hNtEoJGGmbfkUc4GWyFj-30" style="rounded=0;orthogonalLoop=1;jettySize=auto;html=1;exitX=0.5;exitY=1;exitDx=0;exitDy=0;entryX=0.5;entryY=0;entryDx=0;entryDy=0;endArrow=none;endFill=0;" parent="1" source="hNtEoJGGmbfkUc4GWyFj-3" target="hNtEoJGGmbfkUc4GWyFj-8" edge="1">
          <mxGeometry relative="1" as="geometry" />
        </mxCell>
        <mxCell id="hNtEoJGGmbfkUc4GWyFj-31" style="rounded=0;orthogonalLoop=1;jettySize=auto;html=1;exitX=0.5;exitY=1;exitDx=0;exitDy=0;entryX=0.5;entryY=0;entryDx=0;entryDy=0;endArrow=none;endFill=0;" parent="1" source="hNtEoJGGmbfkUc4GWyFj-3" target="hNtEoJGGmbfkUc4GWyFj-6" edge="1">
          <mxGeometry relative="1" as="geometry" />
        </mxCell>
        <mxCell id="hNtEoJGGmbfkUc4GWyFj-32" style="rounded=0;orthogonalLoop=1;jettySize=auto;html=1;exitX=0.5;exitY=1;exitDx=0;exitDy=0;entryX=0.5;entryY=0;entryDx=0;entryDy=0;endArrow=none;endFill=0;" parent="1" source="hNtEoJGGmbfkUc4GWyFj-3" target="hNtEoJGGmbfkUc4GWyFj-9" edge="1">
          <mxGeometry relative="1" as="geometry" />
        </mxCell>
        <mxCell id="hNtEoJGGmbfkUc4GWyFj-34" style="rounded=0;orthogonalLoop=1;jettySize=auto;html=1;exitX=1;exitY=0.5;exitDx=0;exitDy=0;entryX=0;entryY=0.5;entryDx=0;entryDy=0;endArrow=none;endFill=0;" parent="1" source="hNtEoJGGmbfkUc4GWyFj-3" target="hNtEoJGGmbfkUc4GWyFj-10" edge="1">
          <mxGeometry relative="1" as="geometry" />
        </mxCell>
        <mxCell id="hNtEoJGGmbfkUc4GWyFj-3" value="Termék" style="ellipse;whiteSpace=wrap;html=1;" parent="1" vertex="1">
          <mxGeometry x="413" y="250" width="120" height="80" as="geometry" />
        </mxCell>
        <mxCell id="hNtEoJGGmbfkUc4GWyFj-24" style="rounded=0;orthogonalLoop=1;jettySize=auto;html=1;exitX=1;exitY=0.5;exitDx=0;exitDy=0;entryX=0;entryY=0.5;entryDx=0;entryDy=0;endArrow=none;endFill=0;" parent="1" source="hNtEoJGGmbfkUc4GWyFj-4" target="hNtEoJGGmbfkUc4GWyFj-3" edge="1">
          <mxGeometry relative="1" as="geometry" />
        </mxCell>
        <mxCell id="hNtEoJGGmbfkUc4GWyFj-27" style="rounded=0;orthogonalLoop=1;jettySize=auto;html=1;exitX=0;exitY=0.5;exitDx=0;exitDy=0;entryX=1;entryY=0.5;entryDx=0;entryDy=0;endArrow=none;endFill=0;" parent="1" source="hNtEoJGGmbfkUc4GWyFj-4" target="hNtEoJGGmbfkUc4GWyFj-5" edge="1">
          <mxGeometry relative="1" as="geometry" />
        </mxCell>
        <mxCell id="hNtEoJGGmbfkUc4GWyFj-4" value="Darab" style="ellipse;whiteSpace=wrap;html=1;" parent="1" vertex="1">
          <mxGeometry y="250" width="120" height="80" as="geometry" />
        </mxCell>
        <mxCell id="hNtEoJGGmbfkUc4GWyFj-5" value="Dátum" style="ellipse;whiteSpace=wrap;html=1;" parent="1" vertex="1">
          <mxGeometry x="-413.5" y="250" width="120" height="80" as="geometry" />
        </mxCell>
        <mxCell id="hNtEoJGGmbfkUc4GWyFj-6" value="Kód" style="ellipse;whiteSpace=wrap;html=1;" parent="1" vertex="1">
          <mxGeometry x="180" y="390" width="120" height="80" as="geometry" />
        </mxCell>
        <mxCell id="hNtEoJGGmbfkUc4GWyFj-7" value="Név" style="ellipse;whiteSpace=wrap;html=1;" parent="1" vertex="1">
          <mxGeometry x="340" y="390" width="120" height="80" as="geometry" />
        </mxCell>
        <mxCell id="hNtEoJGGmbfkUc4GWyFj-8" value="Ár" style="ellipse;whiteSpace=wrap;html=1;" parent="1" vertex="1">
          <mxGeometry x="500" y="390" width="120" height="80" as="geometry" />
        </mxCell>
        <mxCell id="hNtEoJGGmbfkUc4GWyFj-9" value="Méret" style="ellipse;whiteSpace=wrap;html=1;" parent="1" vertex="1">
          <mxGeometry x="660" y="390" width="120" height="80" as="geometry" />
        </mxCell>
        <mxCell id="hNtEoJGGmbfkUc4GWyFj-35" style="rounded=0;orthogonalLoop=1;jettySize=auto;html=1;exitX=0.5;exitY=1;exitDx=0;exitDy=0;entryX=0.5;entryY=0;entryDx=0;entryDy=0;endArrow=none;endFill=0;" parent="1" source="hNtEoJGGmbfkUc4GWyFj-10" target="hNtEoJGGmbfkUc4GWyFj-12" edge="1">
          <mxGeometry relative="1" as="geometry" />
        </mxCell>
        <mxCell id="hNtEoJGGmbfkUc4GWyFj-36" style="rounded=0;orthogonalLoop=1;jettySize=auto;html=1;exitX=0.5;exitY=1;exitDx=0;exitDy=0;entryX=0.5;entryY=0;entryDx=0;entryDy=0;endArrow=none;endFill=0;" parent="1" source="hNtEoJGGmbfkUc4GWyFj-10" target="hNtEoJGGmbfkUc4GWyFj-13" edge="1">
          <mxGeometry relative="1" as="geometry" />
        </mxCell>
        <mxCell id="hNtEoJGGmbfkUc4GWyFj-37" style="rounded=0;orthogonalLoop=1;jettySize=auto;html=1;exitX=0.5;exitY=1;exitDx=0;exitDy=0;entryX=0.5;entryY=0;entryDx=0;entryDy=0;endArrow=none;endFill=0;" parent="1" source="hNtEoJGGmbfkUc4GWyFj-10" target="hNtEoJGGmbfkUc4GWyFj-14" edge="1">
          <mxGeometry relative="1" as="geometry" />
        </mxCell>
        <mxCell id="hNtEoJGGmbfkUc4GWyFj-10" value="Vásárló" style="ellipse;whiteSpace=wrap;html=1;" parent="1" vertex="1">
          <mxGeometry x="1090" y="250" width="120" height="80" as="geometry" />
        </mxCell>
        <mxCell id="byQVNw7EDPsO8OnBlo1--1" style="rounded=0;orthogonalLoop=1;jettySize=auto;html=1;exitX=0.5;exitY=0;exitDx=0;exitDy=0;entryX=0.5;entryY=1;entryDx=0;entryDy=0;endArrow=none;endFill=0;" edge="1" parent="1" source="hNtEoJGGmbfkUc4GWyFj-11" target="hNtEoJGGmbfkUc4GWyFj-10">
          <mxGeometry relative="1" as="geometry" />
        </mxCell>
        <mxCell id="hNtEoJGGmbfkUc4GWyFj-11" value="VID" style="ellipse;whiteSpace=wrap;html=1;" parent="1" vertex="1">
          <mxGeometry x="840" y="400" width="120" height="80" as="geometry" />
        </mxCell>
        <mxCell id="hNtEoJGGmbfkUc4GWyFj-12" value="név" style="ellipse;whiteSpace=wrap;html=1;" parent="1" vertex="1">
          <mxGeometry x="1010" y="400" width="120" height="80" as="geometry" />
        </mxCell>
        <mxCell id="hNtEoJGGmbfkUc4GWyFj-38" style="rounded=0;orthogonalLoop=1;jettySize=auto;html=1;exitX=0.5;exitY=1;exitDx=0;exitDy=0;entryX=0.5;entryY=0;entryDx=0;entryDy=0;endArrow=none;endFill=0;" parent="1" source="hNtEoJGGmbfkUc4GWyFj-13" target="hNtEoJGGmbfkUc4GWyFj-15" edge="1">
          <mxGeometry relative="1" as="geometry" />
        </mxCell>
        <mxCell id="hNtEoJGGmbfkUc4GWyFj-39" style="rounded=0;orthogonalLoop=1;jettySize=auto;html=1;exitX=0.5;exitY=1;exitDx=0;exitDy=0;entryX=0.5;entryY=0;entryDx=0;entryDy=0;endArrow=none;endFill=0;" parent="1" source="hNtEoJGGmbfkUc4GWyFj-13" target="hNtEoJGGmbfkUc4GWyFj-16" edge="1">
          <mxGeometry relative="1" as="geometry" />
        </mxCell>
        <mxCell id="hNtEoJGGmbfkUc4GWyFj-40" style="rounded=0;orthogonalLoop=1;jettySize=auto;html=1;exitX=0.5;exitY=1;exitDx=0;exitDy=0;entryX=0.5;entryY=0;entryDx=0;entryDy=0;endArrow=none;endFill=0;" parent="1" source="hNtEoJGGmbfkUc4GWyFj-13" target="hNtEoJGGmbfkUc4GWyFj-17" edge="1">
          <mxGeometry relative="1" as="geometry" />
        </mxCell>
        <mxCell id="hNtEoJGGmbfkUc4GWyFj-41" style="rounded=0;orthogonalLoop=1;jettySize=auto;html=1;exitX=0.5;exitY=1;exitDx=0;exitDy=0;entryX=0.5;entryY=0;entryDx=0;entryDy=0;endArrow=none;endFill=0;" parent="1" source="hNtEoJGGmbfkUc4GWyFj-13" target="hNtEoJGGmbfkUc4GWyFj-18" edge="1">
          <mxGeometry relative="1" as="geometry" />
        </mxCell>
        <mxCell id="hNtEoJGGmbfkUc4GWyFj-13" value="lakcím" style="ellipse;whiteSpace=wrap;html=1;" parent="1" vertex="1">
          <mxGeometry x="1160" y="400" width="120" height="80" as="geometry" />
        </mxCell>
        <mxCell id="hNtEoJGGmbfkUc4GWyFj-14" value="fizetési mód" style="ellipse;whiteSpace=wrap;html=1;" parent="1" vertex="1">
          <mxGeometry x="1310" y="400" width="120" height="80" as="geometry" />
        </mxCell>
        <mxCell id="hNtEoJGGmbfkUc4GWyFj-15" value="irányítószám" style="ellipse;whiteSpace=wrap;html=1;" parent="1" vertex="1">
          <mxGeometry x="895" y="600" width="120" height="80" as="geometry" />
        </mxCell>
        <mxCell id="hNtEoJGGmbfkUc4GWyFj-16" value="város" style="ellipse;whiteSpace=wrap;html=1;" parent="1" vertex="1">
          <mxGeometry x="1075" y="600" width="120" height="80" as="geometry" />
        </mxCell>
        <mxCell id="hNtEoJGGmbfkUc4GWyFj-17" value="utca" style="ellipse;whiteSpace=wrap;html=1;" parent="1" vertex="1">
          <mxGeometry x="1255" y="600" width="120" height="80" as="geometry" />
        </mxCell>
        <mxCell id="hNtEoJGGmbfkUc4GWyFj-18" value="házszám" style="ellipse;whiteSpace=wrap;html=1;" parent="1" vertex="1">
          <mxGeometry x="1425" y="600" width="120" height="80" as="geometry" />
        </mxCell>
      </root>
    </mxGraphModel>
  </diagram>
</mxfile>
